<svg height="991.90668" viewBox="0 0 2666.6667 991.90668" width="2666.6667" xmlns="http://www.w3.org/2000/svg" xmlns:xlink="http://www.w3.org/1999/xlink"><clipPath id="a"><path d="m0 743.93h2000v-743.93h-2000z"/></clipPath><g clip-path="url(#a)" transform="matrix(1.3333333 0 0 -1.3333333 0 991.90667)"><path d="m0 0c0-74.791-60.629-135.42-135.42-135.42s-135.42 60.629-135.42 135.42 60.629 135.42 135.42 135.42 135.42-60.629 135.42-135.42" fill="#6e9e35" transform="translate(631.3774 276.748)"/><g fill="#656668"><path d="m0 0v-38.354c-14.374 6.159-26.689 9.239-36.953 9.239-7.653 0-13.997-1.54-19.035-4.62-5.04-3.079-8.216-6.625-9.518-10.637-1.308-4.014-1.959-14.696-1.959-32.053l-.035-41.154h63.58v-33.873h-63.607l-.218-270.704h-39.193v270.704h-40.032v33.873h40.032v47.591c0 21.837 2.002 37.416 6.017 46.752 4.012 9.33 10.823 16.841 20.437 22.534 9.61 5.693 21.227 8.54 34.855 8.54 12.687 0 27.898-2.616 45.629-7.838" transform="translate(150.9702 541.4136)"/><path d="m0 0h40.034v-44.511c11.94 17.54 24.539 30.655 37.792 39.334 13.25 8.678 27.058 13.015 41.431 13.015 10.822 0 22.394-3.454 34.714-10.355l-20.436-33.033c-8.214 3.541-15.118 5.317-20.717 5.317-13.065 0-25.663-5.369-37.791-16.098-12.134-10.734-21.373-27.389-27.715-49.968-4.857-17.357-7.278-52.448-7.278-105.261v-103.017h-40.034z" transform="translate(187.0513 423.835)"/><path d="m0 0c-22.212 0-42.832-5.366-61.868-16.098-19.035-10.734-33.97-25.569-44.791-44.507-10.826-18.947-16.237-39.431-16.237-61.452 0-33.407 11.196-61.027 33.593-82.862 22.394-21.84 51.412-32.75 87.062-32.75 36.017 0 64.991 10.818 86.923 32.467 21.929 21.652 32.895 50.112 32.895 85.387 0 22.956-5.04 43.434-15.119 61.446-10.076 18.009-24.354 32.236-42.831 42.69-18.475 10.452-38.353 15.679-59.627 15.679m115.617 29.953h39.191v-242.713c0-42.737-3.733-73.997-11.197-93.782-10.265-27.994-28.091-49.547-53.469-64.662-25.383-15.12-55.897-22.678-91.542-22.678-26.131 0-49.598 3.703-70.406 11.088-20.814 7.395-37.749 17.315-50.81 29.759-13.067 12.455-25.105 30.658-36.113 54.611h42.552c11.583-20.153 26.533-35.086 44.842-44.785 18.313-9.705 41.018-14.561 68.111-14.561 26.718 0 49.284 4.979 67.689 14.925 18.407 9.953 31.532 22.469 39.381 37.524 7.848 15.07 11.771 39.388 11.771 72.966v15.678c-14.758-18.667-32.791-32.991-54.086-42.973-21.297-9.984-43.905-14.974-67.811-14.974-28.027 0-54.369 6.949-79.029 20.855-24.663 13.903-43.716 32.614-57.165 56.125-13.451 23.519-20.173 49.363-20.173 77.548 0 28.178 7.002 54.45 21.016 78.804 14.012 24.356 33.393 43.625 58.146 57.808 24.755 14.183 50.862 21.275 78.323 21.275 22.788 0 44.043-4.714 63.753-14.136 19.709-9.425 38.715-24.962 57.026-46.608z" transform="translate(499.4067 393.8818)"/><path d="m0 0h39.192v-113.098h62.148v-33.873h-62.148v-270.704h-39.192v270.704h-53.472v33.873h53.472z" transform="translate(757.0454 536.9326)"/><path d="m0 0c-5.232 20.902-12.848 37.604-22.848 50.112-10.002 12.502-23.215 22.578-39.658 30.236-16.449 7.646-33.732 11.475-51.848 11.475-29.906 0-55.6-9.616-77.087-28.832-15.695-14-27.56-34.992-35.596-62.991zm0-82.024 33.037-17.352c-10.84-21.28-23.351-38.454-37.549-51.516-14.201-13.062-30.17-23.004-47.92-29.812-17.75-6.814-37.828-10.218-60.242-10.218-49.692 0-88.54 16.28-116.562 48.85-28.02 32.566-42.029 69.381-42.029 110.437 0 38.632 11.856 73.068 35.582 103.302 30.07 38.445 70.326 57.667 120.769 57.667 51.926 0 93.394-19.69 124.402-59.068 22.043-27.809 33.244-62.52 33.625-104.137h-274.069c.744-35.379 12.053-64.379 33.914-87.003 21.862-22.623 48.862-33.934 81.007-33.934 15.502 0 30.586 2.69 45.264 8.087 14.664 5.387 27.13 12.552 37.412 21.474 10.283 8.922 21.4 23.33 33.359 43.223" transform="translate(1148.4336 302.3389)"/><path d="m0 0h39.191v-240.5l141.211 122.921h57.551l-167.412-145.29 177.201-159.287h-55.158l-153.393 137.133v-137.133h-39.191z" transform="translate(1252.8672 541.4136)"/></g><path d="m0 0c-30.821 0-55.809 24.982-55.809 55.808 0 30.82 24.988 55.805 55.809 55.805s55.81-24.985 55.81-55.805c0-30.826-24.989-55.808-55.81-55.808m0 148.286c-51.077 0-92.479-41.405-92.479-92.478 0-51.079 41.402-92.481 92.479-92.481 51.076 0 92.479 41.402 92.479 92.481 0 51.073-41.403 92.478-92.479 92.478" fill="#e96530" transform="translate(495.3511 218.874)"/><path d="m0 0c-13.861-5.298-26.123-13.031-47.154-13.696-1.487 1.665-2.979 3.315-4.485 4.988 13.924 23.205 44.875 18.004 48.569 50.841-.936 1.626-1.494 3.567-3.057 3.642-4.848 3.363-7.199 4.625-11.703 2.98-19.486-11.697-20.723-39.589-49.596-42.423-.72 1.603-1.412 3.226-2.133 4.834 7.039 14.513 20.752 20.795 27.977 36.459-7.383 5.499-8.367 8.382-20.764 10.579-2.509-2.242-4.972-4.483-7.474-6.73-7.69-14.911-29.985-94.772-60.897-77.379-9.609 14.448-30.556 94.327-22.453 114.905 6.904 17.588 27.045 31.854 28.584 48.271 1.531 16.203-16.695 72.422-33.978 75.247 0 0-32.174 6.497-58.331-12.986-1.222-.33-2.437-.681-3.628-1.097-4.944-6.621-10.973-7.226-12.842-16.619-.006-.01-.014-.021-.022-.031l.016-.003c-.317-1.603-.529-3.428-.576-5.615 0 0-7.778-14.633-21.573-32.147l.079.031c-28.256-18.849-54.241-31.728-102.977-37.222-.113 12.632-.252 25.286-.367 37.937 15.135 18.976 41.84 41.879 46.859 67.938-.394 3.677-1.117 4.735-3.472 5.646-6.09 4.902-8.071 1.831-11.112.558-7.047-16.286-13.101-37.781-35.179-38.446 3.527 22.273 18.126 60.823 8.806 77.756-3.892.971-7.791 1.974-11.691 2.975-1.621-.718-3.239-1.425-4.85-2.124-1.119-6.267-2.394-12.457-1.541-18.837 4.504-13.848 4.424-48.598-13.969-51.442-9.121 15.838-14.377 28.974-22.63 47.161-1.778.764-4.002 2.406-5.631 1.697-7.321-2.195-5.799-.872-9.832-6.592-3.129-6.091-2.006-10.943 1.515-16.668 45.215-42.85 33.28-65.382 44.961-137.416 1.58-.091 3.145-.165 4.725-.254 18.709-9.943 55.017 3.106 71.369 5.761.66-3.199 1.268-6.395 1.894-9.584-27.904-18.164-38.582-38.901-40.152-87.953-4.965-5.958-1.181-5.942-9.93-8.972-3.468 17.007-18.062 59.975-36.99 63.557-7.133-16.21-14.318-32.423-21.486-48.632-1.373-10.989-2.717-21.99-4.086-32.973-3.994 21.953-16.322 27.921-13.834 52.851 14.477 7.228 31.23 24.467 34.006 42.754-4.434 8.202-20.426 12.216-21.949 6.39-1.789-5.971-.596-11.031-.866-16.561-8.308-5.528-11.605-11.84-22.134-15.414.08 1.571.171 3.158.257 4.732-1.23 22.152-2.88 42.861-4.068 65.041-3.797 10.983-9.105 3.819-13.754 2.237-3.877-3.405-1.676-.485-3.933-9.087 9.412-15.327 5.63-32.179 2.957-54.852-.821-.749-1.643-1.488-2.483-2.237-1.574.074-3.17.158-4.715.239-6.392 10.836-21.457 39.205-33.25 44.398-.775.045-1.56.076-2.367.12-5.64-4.171-5.096-2.985-7.691-11.441 26.869-33.834 62.271-69.439 77.039-113.038 8.648-25.58 8.365-63.717 39.09-68.383 3.859 12.423 7.476 66.993 18.121 74.877 1.597-6.712 31.859-84.888 35.742-87.18 27.865-16.147 69.734 9.999 97.762 11.494-.092-1.574-.174-3.161-.258-4.737-18.965-10.648-52.033-28.521-61.807-48.914.801-.028 1.574-.073 2.354-.123 5.029-6.832 6.316-7.128 18.547-8.068 18.205-11.062 65.923.791 85.586 5.007 39.878 8.574 75.8-8.631 105.855-15 3.316 5.681 4.314 6.484 5.592 16.299-12.656 6.296-34.592 3.347-46.776 11.928-.67 2.394-1.343 4.79-1.994 7.204 1.742 3.075 3.492 6.131 5.217 9.203 13.871 5.384 30.66 4.879 38.805 16.941.25 4.71.492 9.445.736 14.18-1.545.854-3.059 1.739-4.59 2.614-11.922-2.284-49.699-32.308-55.855-25.536-1.971 7.754 9.474 34.578 8.937 35.081-5.156 8.205-7.945 10.959-20.644 12.923-1.614-.697-3.254-1.414-4.852-2.1-.746-24.564-2.726-42.287-10.18-58.727-12.464-4.96-25.441-6.061-45.275-4.736.055.773.09 1.582.131 2.358 16.641 16.453 45.852 33.692 50.59 61.341-7.084 2.624-6.944 3.829-16.283 5.591-17.336.906-34.668 1.815-52 2.715.082 1.571.181 3.143.23 4.73 32.531 20.222 41.023 39.352 51.848 84.973 2.351-.123 4.724-.252 7.086-.359 10.459-23.378 8.341-59.854 44.189-61.567 15.131 7.793 38.817 19.319 53.356 23.286 28.265 7.728 59.205-3.37 83.326 7.503 1.035 4.685 2.056 9.359 3.105 14.052-1.086 5.395-3.791 3.954-7.699 7.076" fill="#e96433" transform="translate(1986.7363 478.7368)"/></g></svg>