<?xml version="1.0" encoding="UTF-8" standalone="no"?>
<svg
   xmlns:dc="http://purl.org/dc/elements/1.1/"
   xmlns:cc="http://creativecommons.org/ns#"
   xmlns:rdf="http://www.w3.org/1999/02/22-rdf-syntax-ns#"
   xmlns:svg="http://www.w3.org/2000/svg"
   xmlns="http://www.w3.org/2000/svg"
   viewBox="0 0 2666.6667 991.90668"
   height="991.90668"
   width="2666.6667"
   xml:space="preserve"
   id="svg2"
   version="1.1"><metadata
     id="metadata8"><rdf:RDF><cc:Work
         rdf:about=""><dc:format>image/svg+xml</dc:format><dc:type
           rdf:resource="http://purl.org/dc/dcmitype/StillImage" /></cc:Work></rdf:RDF></metadata><defs
     id="defs6"><clipPath
       id="clipPath18"
       clipPathUnits="userSpaceOnUse"><path
         id="path16"
         d="M 0,743.93 H 2000 V 0 H 0 Z" /></clipPath></defs><g
     transform="matrix(1.3333333,0,0,-1.3333333,0,991.90667)"
     id="g10"><g
       id="g12"><g
         clip-path="url(#clipPath18)"
         id="g14"><g
           transform="translate(631.3774,276.748)"
           id="g20"><path
             id="path22"
             style="fill:#6e9e35;fill-opacity:1;fill-rule:nonzero;stroke:none"
             d="m 0,0 c 0,-74.791 -60.629,-135.42 -135.42,-135.42 -74.791,0 -135.42,60.629 -135.42,135.42 0,74.791 60.629,135.42 135.42,135.42 C -60.629,135.42 0,74.791 0,0" /></g><g
           transform="translate(150.9702,541.4136)"
           id="g24"><path
             id="path26"
             style="fill:#656668;fill-opacity:1;fill-rule:nonzero;stroke:none"
             d="m 0,0 v -38.354 c -14.374,6.159 -26.689,9.239 -36.953,9.239 -7.653,0 -13.997,-1.54 -19.035,-4.62 -5.04,-3.079 -8.216,-6.625 -9.518,-10.637 -1.308,-4.014 -1.959,-14.696 -1.959,-32.053 l -0.035,-41.154 h 63.58 v -33.873 h -63.607 l -0.218,-270.704 h -39.193 v 270.704 h -40.032 v 33.873 h 40.032 v 47.591 c 0,21.837 2.002,37.416 6.017,46.752 4.012,9.33 10.823,16.841 20.437,22.534 9.61,5.693 21.227,8.54 34.855,8.54 C -32.942,7.838 -17.731,5.222 0,0" /></g><g
           transform="translate(187.0513,423.835)"
           id="g28"><path
             id="path30"
             style="fill:#656668;fill-opacity:1;fill-rule:nonzero;stroke:none"
             d="m 0,0 h 40.034 v -44.511 c 11.94,17.54 24.539,30.655 37.792,39.334 13.25,8.678 27.058,13.015 41.431,13.015 10.822,0 22.394,-3.454 34.714,-10.355 L 133.535,-35.55 c -8.214,3.541 -15.118,5.317 -20.717,5.317 -13.065,0 -25.663,-5.369 -37.791,-16.098 C 62.893,-57.065 53.654,-73.72 47.312,-96.299 42.455,-113.656 40.034,-148.747 40.034,-201.56 V -304.577 H 0 Z" /></g><g
           transform="translate(499.4067,393.8818)"
           id="g32"><path
             id="path34"
             style="fill:#656668;fill-opacity:1;fill-rule:nonzero;stroke:none"
             d="m 0,0 c -22.212,0 -42.832,-5.366 -61.868,-16.098 -19.035,-10.734 -33.97,-25.569 -44.791,-44.507 -10.826,-18.947 -16.237,-39.431 -16.237,-61.452 0,-33.407 11.196,-61.027 33.593,-82.862 22.394,-21.84 51.412,-32.75 87.062,-32.75 36.017,0 64.991,10.818 86.923,32.467 21.929,21.652 32.895,50.112 32.895,85.387 0,22.956 -5.04,43.434 -15.119,61.446 C 92.382,-40.36 78.104,-26.133 59.627,-15.679 41.152,-5.227 21.274,0 0,0 m 115.617,29.953 h 39.191 V -212.76 c 0,-42.737 -3.733,-73.997 -11.197,-93.782 -10.265,-27.994 -28.091,-49.547 -53.469,-64.662 -25.383,-15.12 -55.897,-22.678 -91.542,-22.678 -26.131,0 -49.598,3.703 -70.406,11.088 -20.814,7.395 -37.749,17.315 -50.81,29.759 -13.067,12.455 -25.105,30.658 -36.113,54.611 h 42.552 c 11.583,-20.153 26.533,-35.086 44.842,-44.785 18.313,-9.705 41.018,-14.561 68.111,-14.561 26.718,0 49.284,4.979 67.689,14.925 18.407,9.953 31.532,22.469 39.381,37.524 7.848,15.07 11.771,39.388 11.771,72.966 v 15.678 c -14.758,-18.667 -32.791,-32.991 -54.086,-42.973 -21.297,-9.984 -43.905,-14.974 -67.811,-14.974 -28.027,0 -54.369,6.949 -79.029,20.855 -24.663,13.903 -43.716,32.614 -57.165,56.125 -13.451,23.519 -20.173,49.363 -20.173,77.548 0,28.178 7.002,54.45 21.016,78.804 14.012,24.356 33.393,43.625 58.146,57.808 24.755,14.183 50.862,21.275 78.323,21.275 22.788,0 44.043,-4.714 63.753,-14.136 C 78.3,14.23 97.306,-1.307 115.617,-22.953 Z" /></g><g
           transform="translate(757.0454,536.9326)"
           id="g36"><path
             id="path38"
             style="fill:#656668;fill-opacity:1;fill-rule:nonzero;stroke:none"
             d="m 0,0 h 39.192 v -113.098 h 62.148 v -33.873 H 39.192 V -417.675 H 0 v 270.704 h -53.472 v 33.873 H 0 Z" /></g><g
           transform="translate(1148.4336,302.3389)"
           id="g40"><path
             id="path42"
             style="fill:#656668;fill-opacity:1;fill-rule:nonzero;stroke:none"
             d="m 0,0 c -5.232,20.902 -12.848,37.604 -22.848,50.112 -10.002,12.502 -23.215,22.578 -39.658,30.236 -16.449,7.646 -33.732,11.475 -51.848,11.475 -29.906,0 -55.6,-9.616 -77.087,-28.832 -15.695,-14 -27.56,-34.992 -35.596,-62.991 z m 0,-82.024 33.037,-17.352 c -10.84,-21.28 -23.351,-38.454 -37.549,-51.516 -14.201,-13.062 -30.17,-23.004 -47.92,-29.812 -17.75,-6.814 -37.828,-10.218 -60.242,-10.218 -49.692,0 -88.54,16.28 -116.562,48.85 -28.02,32.566 -42.029,69.381 -42.029,110.437 0,38.632 11.856,73.068 35.582,103.302 30.07,38.445 70.326,57.667 120.769,57.667 51.926,0 93.394,-19.69 124.402,-59.068 C 31.531,42.457 42.732,7.746 43.113,-33.871 h -274.069 c 0.744,-35.379 12.053,-64.379 33.914,-87.003 21.862,-22.623 48.862,-33.934 81.007,-33.934 15.502,0 30.586,2.69 45.264,8.087 14.664,5.387 27.13,12.552 37.412,21.474 10.283,8.922 21.4,23.33 33.359,43.223" /></g><g
           transform="translate(1252.8672,541.4136)"
           id="g44"><path
             id="path46"
             style="fill:#656668;fill-opacity:1;fill-rule:nonzero;stroke:none"
             d="m 0,0 h 39.191 v -240.5 l 141.211,122.921 h 57.551 L 70.541,-262.869 247.742,-422.156 H 192.584 L 39.191,-285.023 V -422.156 H 0 Z" /></g><g
           transform="translate(495.3511,218.874)"
           id="g48"><path
             id="path50"
             style="fill:#e96530;fill-opacity:1;fill-rule:nonzero;stroke:none"
             d="m 0,0 c -30.821,0 -55.809,24.982 -55.809,55.808 0,30.82 24.988,55.805 55.809,55.805 30.821,0 55.81,-24.985 55.81,-55.805 C 55.81,24.982 30.821,0 0,0 m 0,148.286 c -51.077,0 -92.479,-41.405 -92.479,-92.478 0,-51.079 41.402,-92.481 92.479,-92.481 51.076,0 92.479,41.402 92.479,92.481 0,51.073 -41.403,92.478 -92.479,92.478" /></g><g
           transform="translate(1986.7363,478.7368)"
           id="g52"><path
             id="path54"
             style="fill:#e96433;fill-opacity:1;fill-rule:nonzero;stroke:none"
             d="m 0,0 c -13.861,-5.298 -26.123,-13.031 -47.154,-13.696 -1.487,1.665 -2.979,3.315 -4.485,4.988 13.924,23.205 44.875,18.004 48.569,50.841 -0.936,1.626 -1.494,3.567 -3.057,3.642 -4.848,3.363 -7.199,4.625 -11.703,2.98 C -37.316,37.058 -38.553,9.166 -67.426,6.332 c -0.72,1.603 -1.412,3.226 -2.133,4.834 7.039,14.513 20.752,20.795 27.977,36.459 -7.383,5.499 -8.367,8.382 -20.764,10.579 -2.509,-2.242 -4.972,-4.483 -7.474,-6.73 -7.69,-14.911 -29.985,-94.772 -60.897,-77.379 -9.609,14.448 -30.556,94.327 -22.453,114.905 6.904,17.588 27.045,31.854 28.584,48.271 1.531,16.203 -16.695,72.422 -33.978,75.247 0,0 -32.174,6.497 -58.331,-12.986 -1.222,-0.33 -2.437,-0.681 -3.628,-1.097 -4.944,-6.621 -10.973,-7.226 -12.842,-16.619 -0.006,-0.01 -0.014,-0.021 -0.022,-0.031 l 0.016,-0.003 c -0.317,-1.603 -0.529,-3.428 -0.576,-5.615 0,0 -7.778,-14.633 -21.573,-32.147 l 0.079,0.031 c -28.256,-18.849 -54.241,-31.728 -102.977,-37.222 -0.113,12.632 -0.252,25.286 -0.367,37.937 15.135,18.976 41.84,41.879 46.859,67.938 -0.394,3.677 -1.117,4.735 -3.472,5.646 -6.09,4.902 -8.071,1.831 -11.112,0.558 -7.047,-16.286 -13.101,-37.781 -35.179,-38.446 3.527,22.273 18.126,60.823 8.806,77.756 -3.892,0.971 -7.791,1.974 -11.691,2.975 -1.621,-0.718 -3.239,-1.425 -4.85,-2.124 -1.119,-6.267 -2.394,-12.457 -1.541,-18.837 4.504,-13.848 4.424,-48.598 -13.969,-51.442 -9.121,15.838 -14.377,28.974 -22.63,47.161 -1.778,0.764 -4.002,2.406 -5.631,1.697 -7.321,-2.195 -5.799,-0.872 -9.832,-6.592 -3.129,-6.091 -2.006,-10.943 1.515,-16.668 45.215,-42.85 33.28,-65.382 44.961,-137.416 1.58,-0.091 3.145,-0.165 4.725,-0.254 18.709,-9.943 55.017,3.106 71.369,5.761 0.66,-3.199 1.268,-6.395 1.894,-9.584 -27.904,-18.164 -38.582,-38.901 -40.152,-87.953 -4.965,-5.958 -1.181,-5.942 -9.93,-8.972 -3.468,17.007 -18.062,59.975 -36.99,63.557 -7.133,-16.21 -14.318,-32.423 -21.486,-48.632 -1.373,-10.989 -2.717,-21.99 -4.086,-32.973 -3.994,21.953 -16.322,27.921 -13.834,52.851 14.477,7.228 31.23,24.467 34.006,42.754 -4.434,8.202 -20.426,12.216 -21.949,6.39 -1.789,-5.971 -0.596,-11.031 -0.866,-16.561 -8.308,-5.528 -11.605,-11.84 -22.134,-15.414 0.08,1.571 0.171,3.158 0.257,4.732 -1.23,22.152 -2.88,42.861 -4.068,65.041 -3.797,10.983 -9.105,3.819 -13.754,2.237 -3.877,-3.405 -1.676,-0.485 -3.933,-9.087 9.412,-15.327 5.63,-32.179 2.957,-54.852 -0.821,-0.749 -1.643,-1.488 -2.483,-2.237 -1.574,0.074 -3.17,0.158 -4.715,0.239 -6.392,10.836 -21.457,39.205 -33.25,44.398 -0.775,0.045 -1.56,0.076 -2.367,0.12 -5.64,-4.171 -5.096,-2.985 -7.691,-11.441 26.869,-33.834 62.271,-69.439 77.039,-113.038 8.648,-25.58 8.365,-63.717 39.09,-68.383 3.859,12.423 7.476,66.993 18.121,74.877 1.597,-6.712 31.859,-84.888 35.742,-87.18 27.865,-16.147 69.734,9.999 97.762,11.494 -0.092,-1.574 -0.174,-3.161 -0.258,-4.737 -18.965,-10.648 -52.033,-28.521 -61.807,-48.914 0.801,-0.028 1.574,-0.073 2.354,-0.123 5.029,-6.832 6.316,-7.128 18.547,-8.068 18.205,-11.062 65.923,0.791 85.586,5.007 39.878,8.574 75.8,-8.631 105.855,-15 3.316,5.681 4.314,6.484 5.592,16.299 -12.656,6.296 -34.592,3.347 -46.776,11.928 -0.67,2.394 -1.343,4.79 -1.994,7.204 1.742,3.075 3.492,6.131 5.217,9.203 13.871,5.384 30.66,4.879 38.805,16.941 0.25,4.71 0.492,9.445 0.736,14.18 -1.545,0.854 -3.059,1.739 -4.59,2.614 -11.922,-2.284 -49.699,-32.308 -55.855,-25.536 -1.971,7.754 9.474,34.578 8.937,35.081 -5.156,8.205 -7.945,10.959 -20.644,12.923 -1.614,-0.697 -3.254,-1.414 -4.852,-2.1 -0.746,-24.564 -2.726,-42.287 -10.18,-58.727 -12.464,-4.96 -25.441,-6.061 -45.275,-4.736 0.055,0.773 0.09,1.582 0.131,2.358 16.641,16.453 45.852,33.692 50.59,61.341 -7.084,2.624 -6.944,3.829 -16.283,5.591 -17.336,0.906 -34.668,1.815 -52,2.715 0.082,1.571 0.181,3.143 0.23,4.73 32.531,20.222 41.023,39.352 51.848,84.973 2.351,-0.123 4.724,-0.252 7.086,-0.359 10.459,-23.378 8.341,-59.854 44.189,-61.567 15.131,7.793 38.817,19.319 53.356,23.286 28.265,7.728 59.205,-3.37 83.326,7.503 1.035,4.685 2.056,9.359 3.105,14.052 C 6.613,-1.681 3.908,-3.122 0,0" /></g></g></g></g></svg>