<svg height="238.0956" width="674.72205" xmlns="http://www.w3.org/2000/svg" xmlns:xlink="http://www.w3.org/1999/xlink"><clipPath id="a"><path d="m58.517 38.347h98.635v34.807h-98.635z"/></clipPath><g clip-path="url(#a)" transform="matrix(6.8406087 0 0 -6.8406087 -400.293267 500.41378)"><path d="m0 0c.616.614 1.136 1.055 1.64 1.375.5.319 1.128.479 1.882.479 1.186 0 2.03-.405 2.532-1.214.502-.811.754-1.879.754-3.202v-8.629c0-.364-.183-.597-.548-.701-.365-.102-.856-.176-1.472-.222v-.376h6.989v.308c-.205.021-.429.05-.668.085-.24.034-.462.08-.668.137-.205.058-.383.142-.53.256-.148.116-.223.252-.223.411v10.066c0 1.551-.355 2.818-1.061 3.8-.708.981-1.723 1.471-3.047 1.471-.616 0-1.209-.12-1.78-.36-.571-.239-1.096-.542-1.575-.906-.478-.366-.907-.77-1.283-1.216-.377-.445-.691-.861-.941-1.249" fill="#00adef" transform="translate(64.1334 60.4463)"/><path d="m0 0v-10.626c.046-.229.126-.393.239-.495.114-.104.252-.178.411-.225.159-.045.343-.074.548-.085.206-.011.422-.039.651-.086v-.341h-6.607v.341c.525.047.976.15 1.352.308.376.161.565.421.565.788v11.776c0 .183-.018.319-.052.411-.034.091-.131.195-.29.309-.206.114-.446.245-.719.393-.274.149-.548.28-.822.395v.205l4.485 1.607h.231z" fill="#00adef" transform="translate(63.2752 59.8148)"/><g fill="#797a7d"><path d="m0 0c.616.614 1.135 1.055 1.638 1.375.502.319 1.13.479 1.882.479 1.188 0 2.032-.405 2.535-1.214.501-.811.752-1.878.752-3.202v-8.629c0-.364-.183-.597-.548-.701-.365-.102-.855-.176-1.472-.222v-.376h6.989v.308c-.204.022-.428.05-.668.086-.239.033-.461.08-.667.136-.206.058-.382.142-.53.257-.149.115-.222.251-.222.41v10.066c0 1.551-.355 2.818-1.061 3.8-.708.981-1.725 1.471-3.048 1.471-.616 0-1.21-.119-1.781-.359-.57-.24-1.095-.543-1.574-.907-.479-.365-.907-.77-1.284-1.216-.377-.444-.689-.861-.94-1.248" transform="translate(145.3765 60.4463)"/><path d="m0 0v-10.627c.046-.228.126-.393.24-.496.113-.103.251-.177.41-.223.16-.046.343-.075.549-.087.205-.01.421-.038.65-.084v-.342h-6.607v.342c.525.046.976.149 1.352.307.377.161.565.421.565.788v11.777c0 .183-.018.318-.05.41-.036.091-.132.195-.292.31-.205.113-.444.245-.718.392-.275.15-.549.28-.823.394v.206l4.485 1.608h.233z" transform="translate(144.5179 59.8156)"/><path d="m0 0v.347c.279.024.557.053.836.088.279.036.528.094.748.176.221.079.408.19.558.329.152.139.226.314.226.523v11.951c0 .187-.016.349-.051.488-.035.14-.134.269-.297.384-.208.139-.458.278-.749.417-.29.14-.597.268-.923.384v.21l4.709 1.533h.208v-15.576c.047-.232.145-.401.296-.504.152-.106.331-.182.541-.227.209-.048.435-.076.679-.088.244-.011.482-.04.714-.088v-.347z" transform="translate(76.7645 47.9554)"/><path d="m0 0c-.349-.349-.782-.524-1.298-.524-.496 0-.923.181-1.283.542-.36.36-.54.789-.54 1.285 0 .52.175.948.524 1.285.348.34.78.509 1.299.509.516 0 .949-.169 1.298-.509.348-.337.523-.765.523-1.285 0-.518-.175-.953-.523-1.303" transform="translate(81.7286 68.2479)"/><path d="m0 0c.046.278.174.68.384 1.201.208.523.504 1.04.886 1.552.384.509.837.958 1.359 1.34.522.385 1.108.575 1.758.575.997 0 1.794-.307 2.386-.923.59-.615.887-1.353.887-2.212 0-.324-.04-.57-.122-.732-.082-.163-.204-.337-.366-.523-.233-.092-.498-.151-.801-.174-.302-.023-.626-.035-.973-.035-.536 0-1.022-.006-1.464-.017-.441-.012-.865-.023-1.27-.034-.407-.012-.65-.018-1.068-.018l-.156-.475h9.676c-.07.975-.29 1.822-.661 2.541-.373.721-.854 1.319-1.448 1.793-.592.476-1.289.831-2.09 1.062-.803.232-1.657.348-2.563.348-1.116 0-2.133-.236-3.051-.714-.917-.476-1.695-1.096-2.334-1.863-.64-.767-1.133-1.632-1.482-2.596-.348-.963-.523-1.934-.523-2.908 0-1.208.186-2.352.558-3.433.371-1.079.901-2.02 1.587-2.821.684-.802 1.514-1.422 2.49-1.864.976-.439 2.058-.661 3.243-.661.953 0 1.818.174 2.596.523.779.348 1.447.79 2.004 1.324s1.001 1.121 1.325 1.759c.326.639.536 1.214.628 1.726l-.279.069c-.279-.858-.854-1.585-1.724-2.177-.872-.594-1.889-.889-3.049-.889-1.07 0-2.011.197-2.823.593-.813.394-1.488.935-2.022 1.621-.534.683-.942 1.474-1.221 2.368-.278.896-.417 1.829-.417 2.805 0 .256.011.506.035.749.023.243.035.459.035.645z" transform="translate(127.0557 59.5218)"/><path d="m0 0c.046.278.174.679.384 1.201.208.524.505 1.04.886 1.551.384.51.837.959 1.359 1.342s1.107.575 1.759.575c.997 0 1.793-.308 2.384-.923.592-.616.888-1.354.888-2.213 0-.325-.04-.569-.122-.732-.081-.163-.204-.337-.365-.523-.234-.092-.5-.151-.802-.174s-.626-.035-.973-.035c-.536 0-1.023-.006-1.464-.017-.441-.012-.865-.023-1.27-.035-.406-.011-.651-.017-1.068-.017l-.155-.475h9.675c-.07.975-.29 1.821-.661 2.541-.372.72-.854 1.318-1.448 1.793-.592.476-1.289.832-2.091 1.062-.802.233-1.656.348-2.562.348-1.116 0-2.133-.237-3.051-.714-.917-.476-1.695-1.097-2.334-1.863-.64-.767-1.134-1.632-1.481-2.596-.35-.963-.524-1.934-.524-2.908 0-1.207.186-2.352.558-3.433.371-1.079.901-2.02 1.587-2.82.684-.802 1.515-1.423 2.491-1.865.975-.44 2.057-.66 3.242-.66.953 0 1.818.173 2.596.522.779.348 1.448.789 2.004 1.324.558.534 1.001 1.122 1.325 1.759.326.639.536 1.214.628 1.726l-.279.069c-.279-.859-.854-1.585-1.725-2.177-.87-.593-1.888-.89-3.048-.89-1.069 0-2.011.199-2.823.593-.814.395-1.488.936-2.022 1.621-.534.684-.942 1.474-1.221 2.369-.278.895-.417 1.829-.417 2.805 0 .256.011.506.035.749.023.244.036.459.036.645z" transform="translate(88.3798 59.5233)"/><path d="m0 0v.384c1.068.068 1.776.18 2.124.331.35.15.525.412.525.783v20.04c0 .187-.018.326-.053.419-.036.093-.133.197-.296.315-.21.115-.524.295-.941.539-.418.245-.766.423-1.045.54v.209l4.987 1.638h.243v-23.875c0-.231.053-.405.156-.522.105-.117.263-.197.471-.245.21-.045.477-.075.803-.085.325-.012.708-.041 1.15-.087v-.384z" transform="translate(100.4227 47.9554)"/><path d="m0 0c-.359-.663-.841-1.202-1.445-1.621-.603-.418-1.294-.719-2.072-.906-.777-.187-1.596-.28-2.456-.28-1.02 0-1.984.093-2.889.28-.906.187-1.742.452-2.508.801v4.602h.257c.185-.558.419-1.145.699-1.76.28-.616.617-1.186 1.013-1.709s.874-.953 1.432-1.289c.56-.338 1.223-.506 1.992-.506 1.118 0 2.009.318 2.673.958.663.64.995 1.621.995 2.946 0 .72-.228 1.319-.679 1.795-.455.478-1.077.797-1.868.959-.628.117-1.233.245-1.814.384-.582.139-1.107.29-1.57.454-.884.302-1.599.824-2.147 1.568-.546.743-.82 1.638-.82 2.684 0 .721.152 1.371.456 1.952s.712 1.081 1.226 1.499c.513.42 1.106.738 1.78.959.674.222 1.393.331 2.16.331.975 0 1.835-.086 2.578-.261.744-.174 1.453-.389 2.126-.644l.418-4.324-.278-.07c-.326.698-.652 1.342-.976 1.935-.326.593-.685 1.104-1.081 1.535-.394.429-.842.76-1.341.993-.499.232-1.075.348-1.725.348-.394 0-.784-.069-1.167-.209-.383-.139-.72-.342-1.01-.609-.29-.268-.529-.605-.715-1.011-.186-.407-.279-.878-.279-1.412 0-.861.245-1.477.732-1.849s1.102-.65 1.845-.836c.511-.117 1.069-.238 1.671-.367.604-.127 1.127-.249 1.568-.365 1.044-.256 1.933-.791 2.663-1.602.731-.816 1.097-1.815 1.097-2.999 0-.907-.181-1.691-.541-2.354" transform="translate(121.368 50.7413)"/><path d="m0 0c0-.984-.797-1.781-1.78-1.781-.984 0-1.782.797-1.782 1.781 0 .983.798 1.78 1.782 1.78.983 0 1.78-.797 1.78-1.78" transform="translate(63.4052 40.1282)"/><path d="m0 0c0-.984-.797-1.781-1.78-1.781-.985 0-1.782.797-1.782 1.781 0 .983.797 1.78 1.782 1.78.983 0 1.78-.797 1.78-1.78" transform="translate(74.9155 40.1282)"/><path d="m0 0c0-.984-.797-1.781-1.781-1.781s-1.781.797-1.781 1.781c0 .983.797 1.78 1.781 1.78s1.781-.797 1.781-1.78" transform="translate(86.4263 40.1282)"/><path d="m0 0c0-.984-.797-1.781-1.781-1.781-.983 0-1.781.797-1.781 1.781 0 .983.798 1.78 1.781 1.78.984 0 1.781-.797 1.781-1.78" transform="translate(97.9366 40.1282)"/><path d="m0 0c0-.984-.797-1.781-1.78-1.781-.985 0-1.782.797-1.782 1.781 0 .983.797 1.78 1.782 1.78.983 0 1.78-.797 1.78-1.78" transform="translate(109.4469 40.1282)"/><path d="m0 0c0-.984-.797-1.781-1.78-1.781-.984 0-1.782.797-1.782 1.781 0 .983.798 1.78 1.782 1.78.983 0 1.78-.797 1.78-1.78" transform="translate(120.9564 40.1282)"/><path d="m0 0c0-.984-.797-1.781-1.78-1.781-.984 0-1.782.797-1.782 1.781 0 .983.798 1.78 1.782 1.78.983 0 1.78-.797 1.78-1.78" transform="translate(132.4667 40.1282)"/><path d="m0 0c0-.984-.797-1.781-1.781-1.781s-1.781.797-1.781 1.781c0 .983.797 1.78 1.781 1.78s1.781-.797 1.781-1.78" transform="translate(155.4873 40.1282)"/><path d="m0 0c0-.984-.797-1.781-1.78-1.781-.984 0-1.782.797-1.782 1.781 0 .983.798 1.78 1.782 1.78.983 0 1.78-.797 1.78-1.78" transform="translate(143.977 40.1282)"/></g></g></svg>